<?xml version="1.0" standalone="no"?>
<!DOCTYPE svg PUBLIC "-//W3C//DTD SVG 20010904//EN"
 "http://www.w3.org/TR/2001/REC-SVG-20010904/DTD/svg10.dtd">
<svg version="1.0" xmlns="http://www.w3.org/2000/svg"
 width="677.000000pt" height="677.000000pt" viewBox="0 0 677.000000 677.000000"
 preserveAspectRatio="xMidYMid meet">

<g transform="translate(0.000000,677.000000) scale(0.100000,-0.100000)"
fill="#000000" stroke="none">
<path fill="currentColor" d="M3276 6584 c-80 -29 -156 -109 -177 -187 -18 -66 -12 -160 12 -217
27 -62 92 -123 157 -146 45 -16 51 -22 56 -53 11 -69 7 -111 -11 -117 -52 -17
-79 -30 -105 -52 -24 -21 -58 -30 -199 -53 -296 -49 -594 -167 -866 -341 -35
-22 -63 -43 -63 -47 0 -4 13 -20 29 -35 l29 -27 68 43 c260 165 673 318 860
318 l44 0 0 -69 0 -68 -147 -38 c-255 -65 -499 -160 -686 -266 l-88 -51 -39
26 c-54 36 -128 64 -189 72 -105 14 -251 -59 -319 -160 -83 -124 -80 -268 8
-405 l40 -61 -54 -82 c-158 -244 -300 -615 -321 -840 l-7 -76 -50 -23 c-57
-27 -103 -74 -130 -136 l-19 -43 -63 0 -63 0 -17 44 c-52 137 -213 214 -359
172 -73 -21 -155 -95 -187 -168 -65 -150 6 -326 158 -396 75 -34 174 -29 252
14 64 35 126 109 142 170 l12 44 63 0 62 0 22 -50 c23 -54 79 -111 134 -137
31 -15 34 -21 40 -72 18 -163 77 -367 159 -545 46 -101 149 -274 188 -317 24
-26 28 -36 19 -48 -67 -92 -96 -186 -87 -277 9 -88 36 -145 101 -213 77 -81
152 -114 260 -115 74 -1 85 2 147 36 l66 37 69 -49 c218 -153 513 -275 789
-325 l90 -17 12 -43 c21 -78 99 -155 185 -179 14 -5 17 -18 17 -84 l0 -78 -61
-28 c-112 -54 -169 -149 -169 -280 1 -151 126 -276 276 -276 117 0 203 50 259
151 27 48 30 63 30 139 0 73 -4 92 -27 136 -32 61 -79 104 -148 136 l-50 23 0
76 0 76 46 18 c66 25 138 98 160 162 17 48 22 54 54 59 76 12 240 54 330 84
122 40 369 161 487 240 l93 61 37 -25 c53 -35 155 -60 218 -52 113 13 239 106
292 215 23 47 28 69 28 141 0 98 -18 157 -70 225 -30 38 -32 45 -18 56 51 43
195 308 268 493 54 137 81 235 98 355 12 81 14 86 47 104 69 37 140 125 140
172 0 12 13 15 68 15 l68 0 14 -47 c19 -66 115 -163 184 -186 112 -38 221 -11
303 74 61 64 83 118 83 209 0 119 -58 213 -164 268 -70 36 -178 37 -251 2 -65
-32 -126 -94 -151 -153 l-19 -47 -62 0 -62 0 -21 48 c-26 58 -79 114 -130 137
-37 17 -39 20 -45 74 -30 257 -156 581 -317 819 -39 56 -74 105 -79 108 -6 3
7 24 27 46 20 22 48 66 63 97 22 48 26 70 26 146 0 84 -2 94 -36 155 -42 77
-127 151 -200 175 -102 34 -234 14 -330 -50 l-39 -26 -183 90 c-206 101 -378
164 -582 211 -77 18 -144 33 -150 35 -6 1 -9 34 -7 80 l4 77 56 -7 c92 -11
229 -43 342 -81 133 -44 382 -164 492 -238 46 -31 87 -56 91 -56 8 0 61 79 56
83 -24 18 -244 144 -307 176 -206 103 -431 174 -692 216 -89 14 -110 21 -135
46 -17 16 -46 34 -65 40 -53 18 -60 27 -59 78 2 75 10 93 53 108 159 55 226
247 143 413 -35 71 -92 122 -155 140 -52 14 -150 11 -196 -6z m182 -141 c43
-32 65 -69 70 -121 8 -93 -47 -161 -138 -170 -64 -6 -114 19 -145 73 -52 88
-17 196 75 234 35 15 108 7 138 -16z m-24 -717 c51 -21 81 -71 81 -133 0 -47
-4 -56 -36 -89 -86 -85 -225 -36 -236 83 -6 58 23 108 77 135 42 22 70 22 114
4z m-260 -311 l33 -34 -66 -22 c-140 -46 -524 -205 -688 -284 -121 -59 -173
-79 -173 -69 0 8 -9 33 -21 56 l-21 41 23 18 c43 32 253 137 354 177 199 78
435 148 508 151 10 1 33 -15 51 -34z m602 -10 c239 -59 462 -145 641 -247 48
-28 89 -52 91 -53 5 -5 -32 -115 -38 -112 -60 35 -351 168 -460 209 -80 31
-211 81 -292 112 -80 31 -151 56 -157 56 -6 0 -11 2 -11 4 0 11 57 64 69 65 8
0 79 -15 157 -34z m-446 -350 l0 -275 -531 0 c-500 0 -530 1 -525 18 3 9 10
36 15 60 5 24 17 50 28 57 35 27 319 164 468 226 186 77 492 188 523 188 l22
1 0 -275z m199 245 c222 -62 830 -324 915 -394 17 -15 28 -37 34 -73 l9 -53
-528 0 -529 0 0 270 c0 212 3 270 13 270 7 0 45 -9 86 -20z m-1489 -180 c152
-78 167 -293 27 -387 -116 -78 -268 -38 -331 88 -97 196 109 399 304 299z
m2849 15 c136 -41 199 -185 135 -314 -45 -89 -148 -142 -244 -126 -55 9 -130
62 -157 110 -70 125 -9 288 124 329 62 19 79 19 142 1z m-1561 -480 l-3 -49
-95 -13 c-120 -16 -241 -53 -350 -108 -84 -43 -202 -121 -249 -165 l-24 -23
-191 197 c-105 109 -188 200 -184 204 4 4 253 7 553 7 l546 0 -3 -50z m1210
46 c-1 -5 -89 -97 -195 -205 l-192 -197 -68 54 c-148 119 -369 215 -545 239
-113 14 -108 11 -108 63 l0 45 548 3 c301 1 551 3 555 5 5 1 7 -2 5 -7z
m-2181 -256 l195 -196 -36 -42 c-123 -145 -226 -333 -271 -497 -15 -52 -30
-106 -34 -120 -6 -20 -14 -5 -44 87 -54 165 -164 550 -182 640 -9 46 -15 113
-13 163 l3 84 45 8 c25 4 63 21 85 37 22 16 44 30 49 30 5 1 96 -87 203 -194z
m2283 169 c22 -15 64 -32 93 -39 l52 -11 3 -90 c2 -49 -2 -116 -8 -149 -21
-107 -216 -745 -229 -745 -4 0 -15 35 -25 78 -23 100 -86 260 -133 340 -20 34
-67 99 -103 144 -36 44 -69 87 -75 94 -7 11 37 61 185 209 107 107 196 195
198 195 1 0 20 -12 42 -26z m-2815 -35 c22 -7 46 -17 53 -22 18 -14 15 -75 -7
-105 -17 -25 -155 -352 -292 -692 -32 -80 -61 -144 -64 -143 -3 2 -32 11 -65
20 -42 13 -60 23 -60 34 0 45 46 238 83 349 65 198 270 589 302 576 5 -3 28
-10 50 -17z m3208 -61 c145 -190 276 -486 318 -717 27 -146 26 -147 -18 -156
-21 -4 -50 -13 -65 -21 -26 -13 -29 -13 -35 3 -33 92 -290 720 -328 801 -15
30 -25 70 -25 95 0 42 2 44 38 54 20 6 42 11 48 12 7 0 37 -32 67 -71z m-1403
-88 c382 -111 686 -440 765 -830 23 -114 17 -331 -14 -441 -52 -191 -138 -343
-274 -485 -143 -150 -315 -251 -517 -306 -70 -19 -109 -22 -225 -22 -122 1
-152 4 -230 28 -390 116 -659 403 -764 812 -6 22 -15 81 -20 131 -51 491 302
989 792 1119 83 22 107 24 252 20 127 -3 176 -8 235 -26z m-1744 -222 c-3 -50
-6 -239 -6 -420 l0 -328 -123 0 -122 0 -26 53 -25 53 145 367 c80 201 150 367
155 367 5 0 6 -39 2 -92z m3031 9 c17 -45 61 -154 98 -242 36 -88 89 -216 117
-284 l50 -123 -27 -54 -27 -54 -124 0 -124 0 0 313 c0 173 -3 362 -7 420 -3
62 -2 107 3 107 5 0 23 -37 41 -83z m-112 -744 c-3 -10 -38 -13 -130 -13
l-125 0 0 34 c0 33 2 35 36 38 37 3 37 4 59 78 19 66 91 304 142 475 l18 60 3
-330 c1 -181 0 -336 -3 -342z m-2730 257 c62 -206 59 -200 95 -200 28 0 30 -3
30 -35 l0 -35 -120 0 -120 0 1 333 0 332 35 -125 c19 -69 54 -190 79 -270z
m-1306 -211 c53 -30 74 -65 79 -129 2 -40 -2 -64 -16 -90 -58 -105 -200 -109
-276 -7 -29 40 -29 134 0 174 54 72 140 94 213 52z m5381 -1 c77 -53 98 -130
58 -208 -32 -61 -77 -90 -143 -90 -93 0 -155 66 -155 165 0 91 66 154 161 155
32 0 56 -7 79 -22z m-4726 -12 c18 -7 43 -26 55 -42 19 -24 22 -38 19 -83 -4
-47 -10 -59 -41 -88 -32 -29 -43 -33 -91 -33 -65 0 -96 21 -120 81 -21 51 -9
103 31 141 45 41 89 48 147 24z m4057 -25 c33 -32 39 -45 39 -80 0 -83 -53
-141 -127 -141 -87 0 -140 59 -131 144 9 76 54 114 137 115 37 1 49 -4 82 -38z
m-3601 -353 c0 -128 5 -339 10 -467 5 -129 8 -236 6 -238 -2 -2 -16 32 -31 74
-15 43 -59 155 -96 249 -38 95 -95 241 -127 326 l-58 154 23 44 c12 25 23 52
23 61 0 9 3 19 7 22 3 4 60 7 125 7 l118 0 0 -232z m300 228 c0 -2 -10 -25
-22 -52 -12 -27 -61 -164 -109 -304 l-88 -255 0 308 -1 307 110 0 c61 0 110
-2 110 -4z m2627 -316 l2 -315 -29 80 c-16 44 -59 168 -96 275 -37 107 -75
212 -85 232 -11 21 -19 40 -19 43 0 3 51 4 113 3 l112 -3 2 -315z m323 304 c0
-8 12 -40 26 -70 l26 -55 -140 -352 c-77 -194 -147 -370 -156 -392 -16 -39
-17 -36 -11 120 3 88 5 296 5 463 l0 302 125 0 c107 0 125 -2 125 -16z m-2895
-210 c47 -178 134 -354 242 -486 66 -81 83 -50 -154 -281 l-171 -168 -41 29
c-22 16 -60 34 -84 41 l-44 11 -7 76 c-14 167 -14 164 111 536 64 191 118 346
120 345 1 -2 14 -48 28 -103z m2342 44 c12 -35 64 -188 117 -341 l96 -278 0
-138 0 -138 -59 -16 c-32 -9 -73 -28 -90 -42 -28 -25 -32 -25 -53 -11 -45 32
-368 348 -368 361 0 7 8 19 17 26 33 28 128 165 174 253 52 100 99 228 119
324 7 34 16 62 19 62 4 0 16 -28 28 -62z m-3022 -95 c16 -43 82 -208 148 -368
132 -321 167 -412 167 -429 0 -6 -26 -21 -58 -33 l-57 -23 -23 28 c-148 173
-309 557 -338 803 l-6 56 43 11 c24 7 51 16 59 22 29 19 37 10 65 -67z m3764
50 l53 -18 -6 -60 c-19 -188 -156 -530 -294 -735 -38 -55 -63 -84 -72 -81 -66
19 -110 38 -110 48 0 6 59 155 131 330 72 175 150 369 173 431 31 85 45 111
56 108 8 -3 39 -13 69 -23z m-2694 -642 c54 -52 180 -137 266 -179 101 -50
230 -88 350 -104 l89 -12 0 -33 0 -33 -555 0 c-435 0 -555 3 -555 12 0 12 358
378 369 378 3 0 19 -13 36 -29z m1727 -158 c103 -103 188 -191 188 -195 0 -5
-250 -8 -555 -8 l-555 0 0 34 c0 33 2 35 43 41 171 26 273 57 410 126 78 40
180 107 232 153 22 19 42 35 44 36 3 0 89 -84 193 -187z m-2334 -205 c69 -21
132 -99 147 -181 16 -85 -39 -198 -117 -239 -54 -28 -157 -31 -204 -5 -112 60
-164 196 -115 302 54 118 159 163 289 123z m2910 -10 c110 -52 154 -190 96
-306 -103 -207 -405 -150 -431 80 -8 73 13 127 71 184 79 76 163 90 264 42z
m-1598 -321 l0 -252 -37 -14 c-58 -20 -78 -18 -208 28 -231 82 -421 163 -600
254 -162 83 -180 95 -186 122 -4 17 -11 49 -17 73 l-9 42 528 0 529 0 0 -253z
m1155 236 c-4 -10 -10 -39 -12 -65 -3 -26 -13 -54 -22 -62 -24 -21 -231 -129
-351 -181 -58 -26 -211 -82 -340 -126 -234 -80 -235 -80 -280 -67 l-45 14 -3
252 -2 252 531 0 c502 0 531 -1 524 -17z m-2053 -282 c73 -39 171 -86 218
-106 75 -33 507 -195 517 -195 3 0 -5 -13 -16 -28 -11 -16 -23 -40 -26 -55 -7
-25 -11 -27 -55 -27 -101 0 -365 82 -532 166 -109 54 -308 172 -308 182 0 4
11 30 25 57 13 28 25 56 25 63 0 6 4 12 10 12 5 0 69 -31 142 -69z m2071 6
l28 -62 -28 -23 c-46 -37 -171 -107 -304 -171 -178 -85 -323 -132 -511 -165
l-37 -7 -30 63 c-16 35 -27 66 -23 69 4 4 99 37 212 74 231 76 396 145 550
228 58 31 107 56 110 56 3 0 18 -28 33 -62z m-1081 -347 c76 -21 117 -120 81
-190 -37 -71 -117 -98 -189 -64 -100 48 -96 195 6 246 41 21 52 22 102 8z m14
-709 c104 -47 121 -176 34 -255 -35 -32 -46 -36 -93 -36 -34 0 -63 7 -85 20
-35 22 -71 87 -72 130 0 45 42 113 85 137 49 28 77 28 131 4z"/>
<path fill="currentColor" d="M2862 6254 c-563 -121 -1050 -383 -1446 -779 -418 -416 -681 -885
-799 -1425 -25 -115 -52 -289 -46 -293 2 -1 37 -1 77 1 l72 4 0 33 c0 53 37
257 66 357 186 662 648 1268 1237 1622 282 169 669 317 960 367 37 6 67 14 67
18 -1 12 -29 123 -32 126 -2 1 -72 -12 -156 -31z"/>
<path fill="currentColor" d="M3717 6226 c-7 -34 -12 -63 -11 -64 2 -2 54 -14 116 -27 551 -113
1049 -385 1463 -800 293 -293 509 -644 650 -1056 51 -148 79 -272 96 -419 l12
-105 74 3 75 4 -7 51 c-54 409 -188 780 -414 1140 -339 541 -876 974 -1481
1194 -140 50 -390 117 -492 130 l-67 9 -14 -60z"/>
<path fill="currentColor" d="M3085 6003 c-138 -18 -421 -92 -567 -148 -130 -51 -416 -193 -523
-261 -215 -135 -377 -279 -528 -468 -311 -389 -534 -869 -611 -1311 -13 -77
-12 -95 9 -95 7 0 27 -11 43 -25 l30 -25 7 52 c20 155 87 400 156 572 107 267
301 595 485 824 165 206 477 432 795 578 226 103 507 186 722 213 43 5 81 12
84 14 3 3 2 24 -2 46 -7 44 -11 46 -100 34z"/>
<path fill="currentColor" d="M3594 5989 c-4 -6 -10 -26 -14 -45 l-8 -33 47 -6 c162 -19 276 -43
421 -86 314 -95 499 -182 740 -352 246 -172 397 -321 532 -523 281 -420 457
-848 503 -1221 l7 -52 46 30 c55 35 55 19 6 241 -49 223 -99 361 -224 614
-219 443 -453 736 -772 965 -160 114 -305 200 -433 257 -305 134 -820 261
-851 211z"/>
<path fill="currentColor" d="M1424 4669 c-59 -90 -191 -364 -239 -493 -63 -172 -106 -358 -108
-470 -1 -60 2 -100 8 -103 6 -2 25 9 43 24 30 26 34 36 47 128 38 255 173 608
319 837 31 48 56 92 56 97 0 9 -61 51 -74 51 -3 0 -27 -32 -52 -71z"/>
<path fill="currentColor" d="M5237 4712 c-15 -15 -27 -30 -27 -33 0 -3 25 -43 56 -90 156 -237
288 -583 325 -854 13 -92 31 -124 71 -125 37 0 39 71 7 240 -47 245 -131 463
-277 720 -32 56 -114 170 -122 170 -3 0 -18 -13 -33 -28z"/>
<path fill="currentColor" d="M5628 3173 c-12 -3 -19 -19 -23 -51 -28 -208 -82 -432 -141 -586 -42
-108 -128 -272 -196 -375 l-50 -75 33 -28 c19 -15 37 -28 40 -28 3 0 32 39 64
88 185 277 297 595 349 987 3 22 2 45 -2 52 -9 14 -50 23 -74 16z"/>
<path fill="currentColor" d="M1061 3156 c-9 -11 -7 -44 8 -142 42 -269 93 -442 191 -639 62 -123
182 -310 212 -328 12 -8 24 -4 50 19 l34 29 -77 103 c-165 223 -268 507 -320
878 -6 43 -16 82 -22 86 -20 13 -64 9 -76 -6z"/>
<path fill="currentColor" d="M888 3044 c-42 -21 -47 -27 -43 -52 26 -164 43 -247 77 -357 104
-339 277 -663 507 -950 266 -332 590 -565 1059 -763 200 -84 344 -124 605
-167 26 -4 27 -3 27 44 l0 48 -77 12 c-219 35 -410 100 -678 231 -313 153
-477 265 -676 461 -398 392 -650 887 -746 1471 l-8 46 -47 -24z"/>
<path fill="currentColor" d="M5826 3057 c-2 -7 -12 -61 -21 -122 -39 -255 -195 -653 -368 -939
-106 -174 -347 -445 -517 -580 -221 -175 -533 -353 -773 -441 -115 -42 -295
-89 -422 -111 -49 -9 -92 -17 -93 -19 -2 -2 -1 -22 3 -44 8 -50 11 -50 179
-16 165 33 318 83 510 166 199 87 299 140 444 236 314 208 527 420 738 735
110 166 264 498 328 712 31 101 86 341 86 374 0 16 -90 63 -94 49z"/>
<path fill="currentColor" d="M580 2975 c0 -50 40 -274 69 -387 82 -318 267 -700 468 -968 285
-379 668 -690 1128 -915 253 -124 607 -235 752 -235 l42 0 -6 58 c-3 31 -8 60
-12 63 -3 4 -34 12 -67 18 -412 78 -944 345 -1301 654 -122 105 -297 285 -385
397 -282 357 -491 851 -543 1283 l-6 57 -70 0 c-67 0 -69 -1 -69 -25z"/>
<path fill="currentColor" d="M6031 2913 c-20 -141 -60 -308 -107 -453 -54 -163 -202 -469 -304
-625 -318 -487 -808 -873 -1394 -1100 -140 -54 -335 -112 -431 -127 -38 -7
-71 -12 -72 -12 0 -1 -4 -31 -8 -68 l-7 -67 38 5 c784 105 1604 651 2029 1350
224 367 362 759 391 1105 l7 79 -65 0 -65 0 -12 -87z"/>
<path fill="currentColor" d="M2084 1459 l-29 -31 30 -24 c52 -41 216 -140 327 -197 202 -103 414
-174 636 -212 116 -20 132 -16 132 35 0 39 0 39 -47 45 -91 13 -279 57 -383
91 -130 43 -414 181 -538 263 -51 33 -94 61 -95 61 -2 0 -16 -14 -33 -31z"/>
<path  fill="currentColor" d="M4615 1466 c-89 -70 -340 -204 -505 -269 -132 -52 -275 -90 -405
-108 -99 -13 -117 -23 -119 -67 -1 -17 -4 -28 -8 -25 -5 2 -8 -1 -8 -8 0 -26
282 22 453 77 116 38 293 114 397 171 112 61 280 175 280 189 0 14 -39 64 -49
64 -3 0 -19 -11 -36 -24z"/>
</g>
</svg>
